<svg fill="none" height="50" viewBox="0 0 133 50" width="133" xmlns="http://www.w3.org/2000/svg"><g fill="#fff"><path d="m3.93319 30.0486-.04182.0415c.04182-.0415.04182-.0415.04182-.0829v-.2072c.46-2.4446 1.33816-4.8478 2.21633-7.2096.91999-2.4861 1.79815-4.9307 2.96904-7.2925 1.08724-2.2374 2.34174-4.4334 3.76354-6.46373 1.2546-1.86455 2.76-3.89484 4.6836-5.13787.5854-.16574 1.1709-.78725 1.9236-.66295s.7527.91156.5855 1.65738c.209-.58008.3345-1.2016-.1673-1.61594-.6691-.49722-1.9654.29004-2.5091.66295-.2509.08286-.5018.2486-.7109.41434.1255-.1243.2928-.24861.5018-.37291l-.209.08287.5854-.33148c.6691-.37291 2.1745-1.2016 2.6763-.1243.3764.87012-.2091 2.32033-.5018 3.14902-.5436 1.40877-1.2127 2.73467-1.9236 4.06062.1255-.2901.6273-1.40882.6273-1.40882-.2928-.04143-1.6309 3.02472-1.8818 3.10762h.0418c-.1673.1243-.2927.2486-.2927.29-.0837.4972.5018.3729.8363.3315 1.4218-.1658 3.2618-1.3674 4.1818-2.4032 1.0036-1.11874 1.38-2.81756 1.38-4.3092v-.04143c-.0419-2.81754-2.0073-6.380909-5.3945-6.17373666-1.8818.08287026-3.6381 1.90598666-4.8508 3.14901666-.8782.99443-1.7146 2.07173-2.46727 3.14902-.33454.49721-.66908.95299-.9618 1.45021-.33454.45578-1.00362 1.16016-1.17089 1.69881 0 0 .20909-.2486.37636-.41434-.46.70438-.87817 1.45025-1.29635 2.15455-.04181-.0414.25091-.6215.25091-.6215-.37636-.0828-2.09088 3.3148-2.29996 3.6877-.75272 1.3673-1.4218 2.7347-1.88179 4.1849-.50181 1.6159-1.17089 3.149-1.6727 4.7235-.25091.7873-.501813 1.5331-.669084 2.3203-.083635.3729-.16727.7044-.209087 1.0773 0 .0415-.083635.7044 0 .6215-.083635.2901-.083635.663-.125453.953 0 0 0-.7044.041818-.7872-.16727.2071-.041818.9944-.083635 1.0773-.2090878 1.5745-.543628 3.2319 0 4.7649.710901 2.1132 2.467231 3.8534 4.390841 4.9722 1.00362.6215 2.34178 1.3259 3.5963 1.243 1.46362-.0829 2.88539-1.2845 3.97269-2.1546 3.1781-2.6518 6.0635-6.3809 6.6071-10.6072.0419-.29.251-1.7403-.2509-1.7817-.46-.0414-.7945.953-.9618 1.2016-1.2545 2.0303-2.7181 3.9363-4.349 5.6765-1.6727 1.8231-3.76356 3.7706-6.31443 4.3506-.33454.0829-.7109.1244-1.08725.1244-.50181-.0415-.96181-.1658-1.33817-.5387-.20908-.2072-.41817-.9116-.66908-1.0359 0-.2071-.04181-.4143-.08363-.5386l-.12545-.2486c-.04182-1.2431 0-2.4032.20908-3.6877v-.0414c0-.0414.04182-.0415.04182-.0829zm7.35991-20.26143c-1.63091 2.65183-3.01089 5.38643-4.39086 8.20403-.79454 1.6574-1.58907 3.3562-2.21633 5.1379.87816-2.7761 1.9236-5.428 3.17813-8.0798 1.50543-3.1904 3.51266-6.298 5.89626-8.86693-.9618 1.16016-1.7981 2.48607-2.4672 3.6048zm4.3072-4.55779c-.5855.58008-1.1291 1.24303-1.6309 1.86455.7945-1.03587 1.6309-2.07172 2.6763-2.90042-.3763.33148-.7527.74582-1.0454 1.03587zm4.2654.33147c.0836-.24861.1672-.53865.2091-.87012-.0837.37291-.251.74582-.251 1.03586.0419-.08287.0419-.1243.0419-.16574z"/><path d="m40.1063 23.0462s.0418.0414 0-.0414c-.2091-.2901-.5018-.0829-.7945 0-1.2127.2486-2.4672.5386-3.7218.7458.46-1.4917.92-3.0662 1.0873-4.5992.0836-.5801.1254-1.2016 0-1.7817-.0836-.3729-.2091-.7458-.4182-1.0773 0 0-.5018-.6215-.3763-.2901l-.0419-.0414-.1672-.3315.1672.1658c.0419-.2486-.669-.7044-.669-.7044-1.0455-1.0359-2.4673-1.8231-3.8891-1.0359-.8781.4972-1.589 1.3259-2.1745 2.1546-.2091.29-.4182.6215-.5854.953-.1673.3315-.4182 1.4088-.6691 1.5745-.2091.1657-.8364.2072-1.1291.3729-.4182.1658-.7945.3729-1.1291.6215-.7945.4972-1.4218 1.2016-2.0072 1.906-1.0036 1.3259-1.5054 2.8176-2.2163 4.1435-1.3382 2.5275.1254 5.8422 2.5927 7.0438.7945.3729 1.7145.5387 2.5508.4558.8782-.1243 1.7145-.5801 2.3836-1.0773.6273-.4558 2.0073-1.2845 2.2582-1.9888 0-.0415-.0837 0-.2091.1243l1.2127-1.4088c.0418.0414-.2927.4558-.2927.4558.2927.1243 1.7981-2.0718 1.9654-2.2375.2927-.4972.5854-1.0359.92-1.5331.2927-.3729.2091-.3314.6272-.4972-.0418.0415.5019-.1243.5855-.1243.46-.0829 5.3526-.4143 4.1399-1.9474zm-14.4688 8.3698h-.0419c-3.4708.4972.5437-6.7953.6273-7.2096l-.2509.3729c.6273-1.2431 1.2127-2.2375 1.5054-2.569.46 2.0718 2.7182 2.859 4.5581 3.1076-1.2127 2.4032-3.4708 5.7594-6.398 6.2981zm8.238-11.4774c-.2927 1.1602-.5436 2.6932-1.1709 3.7291-.2091.4144-.0836.2901-.5018.3729-.2509.0829-.7945 0-1.0454-.0414-.46-.0414-1.0036-.1243-1.3382-.4144-.5854-.4972-.5018-1.2844-.4182-1.9888.0837-.7044.2928-1.3673.5437-2.0303.1254-.2486.92-1.5745.7945-1.8231-.0418-.1243-.5018.6215-.5436.6629.2509-.4557.5018-.7044.7109-.9944-.0418 0 0-.0414.0418-.1243v.0414l.0418-.0828s0-.0415.0418-.0415c.6273-.8287 2.1745-2.6932 3.0109-1.4087.6272 1.0773.0418 3.1075-.1673 4.1434zm-2.8854-2.6932.0418-.0415c0 .0415-.0418.0415-.0418.0415z"/><path d="m61.9194 23.2534v-.0415c-.2509-1.3673-2.1327.9116-2.3836 1.1188-1.2127 1.3259-2.3418 2.7761-3.4291 4.2263-1.0872 1.4916-2.1326 2.9833-3.2617 4.4749-.5437.7458-1.0873 1.4502-1.7145 2.1132-.2091.2486-.7109.9529-1.0873.9529-1.4636 0-.3345-5.8422-.1673-6.7538.2509-1.6159.3764-3.7705 1.4218-5.055.2509-.3314 3.0945-3.9362 3.0945-3.9362-.0836-.0415-.4181.3729-.6272.6215l1.7981-2.4032.1255-.1658h.0418-.0418l.3345-.4557c.0418.0414 0 .1243-.0418.2071l.3764-.4143 1.0872-1.4088c.7945-1.1187 1.5473-2.3203 2.2582-3.4805 1.129-1.906 2.6763-4.64064 1.8399-6.96097-.6272-1.69882-2.9272-2.03029-4.4745-1.45021-1.129.41435-2.0908 1.28447-2.8854 2.19603-.4181.53865-.8363 1.11873-1.2127 1.74024-.1254.16574-.669 1.49165-.7945 1.65741h.0418c-.2509.4558-.5018.9115-.6691 1.3673.0837-.3315.2928-.9944.46-1.1187-.3345.2486-.6272 1.4502-.7109 1.5745-1.589 3.439-2.969 6.9195-3.9726 10.5658-1.1291-1.2845-2.9273-3.4805-4.8927-2.6933-1.6309.663-2.8436 2.3618-3.6799 3.8534-.7527 1.3259-.9618 2.6933-1.5055 3.9778-.9618 2.196-1.4217 6.7123 1.84 7.3753 1.0036.2072 1.9236-.4144 2.7182-.953 1.4218-1.0359 2.7599-2.2375 4.0144-3.4805-.2091 2.196-.669 5.5108 1.1291 7.251 2.2163 2.2375 4.4327-.7872 5.7708-2.4446 1.7145-2.1546 3.0527-4.5578 4.7672-6.6295.8364-.9944 1.6727-1.9889 2.5509-2.9004.6691-.663 2.0072-1.4917 1.8818-2.5275zm-15.3889 2.7346c-.0418.1243-.0418.2072-.0418.2072-.1673.9944-.1673 1.8646-.8782 2.569-.6272.6629-1.2963 1.2844-1.9654 1.9059-.6272.5801-2.1327 2.2789-3.0945 2.1961-1.1709-.1243-.2927-2.7762.2928-4.3921-.6273 1.6574-1.6309 4.3506-.251 4.4335.3764.0414 1.0037-.29 1.5473-.7458-.5018.4558-1.3382 1.0773-1.84.8287-.9618-.4144-.1254-2.7761.0418-3.4391.5437-1.906 1.3382-3.7291 2.2582-5.4693.46-.8702 1.1291-2.2789 2.0072-2.3618l-.2091.1243c.0419-.0414.0837-.0414.1255-.0414.2927-.0829.5854.1243.7945.29.5437.3729.8782 1.0773 1.2546 1.6159.4181.663.1254 1.3674-.0419 2.1132zm6.7327-9.5713c0-.0415 0-.1243.0418-.1658v-.0414c.0418-.1243.0836-.1657.0836-.1657v-.0415c.9618-2.6518 2.0072-5.3036 3.5127-7.70677.3763-.62152 1.4636-2.52751 2.4254-1.98886.3764.20717.46.74582.46 1.11873.1673 2.48607-1.84 5.4279-3.0945 7.4168-1.4636 2.3203-3.0945 4.5992-4.809 6.7124l.92-.953.8363-1.0359-2.1327 2.7347-.2927.3729-.1673.1657c.0418-.2486.2509-.4972.46-.7872-.0836.0828-.1672.1657-.2091.2486.5437-1.7817 1.1291-3.5634 1.7564-5.3451-.0419.0415 0-.0414.0418-.2071l.1254-.2072c0-.0415 0-.0829.0419-.1243zm-3.5127 3.3976c-.0837.2072-.3346 1.1602-.46 1.2845 0 .0414-.0418.0828-.0836.0828.3345-.4143.1254-.953.2927-1.4502.0836-.2486.5018-.7043.5854-1.0358 0 .3315-.2091.9115-.3345 1.1187zm-6.649 11.4774c1.0454-.9116 2.0491-1.8646 3.0109-2.859-.0837.5386-1.38 1.4502-1.84 1.8645-.5436.5387-1.1709 1.0773-1.7982 1.5745h-.0418zm7.4017-15.2479c-.1673.4972-.3764.953-.6273 1.4087.2091-.6215.3346-1.243.6273-1.8231.2509-.4558.5436-1.0358.7527-1.5745-.2091.663-.5436 1.3674-.7527 1.9889zm2.7181.4972-.1672.4143c0-.0414.0418-.1243.0418-.2071zm-9.0325 5.4693c-.1673.1243-.2928.2901-.3346.2901.0837 0 .2091-.1658.3346-.2901zm1.1708-.0828c.0837.0414.1673.0828.2509.1657zm8.2799-.7459c0-.0414.0418-.0828.0836-.1243-.0418.0829-.0836.1243-.0836.1243zm.0836-.1243.0419-.0828c0 .0414-.0419.0828-.0419.0828z"/><path d="m74.8652 23.1291c0 .0414 0 .0414-.0419 0v-.0415c-.669-1.1187-1.5472.4144-1.9236.953-.7108.953-1.3799 1.8646-2.1326 2.7347-.6273.7458-1.2964 1.4916-1.7982 2.2789 0 .0829-.0836.29-.0836.29-.1673.2486-.4182.4558-.6273.7044-.3764.3729-.7527.7873-1.1709 1.1602-.6273.5801-4.1399 3.8534-4.5999 1.7402-.2509-1.0358.0836-2.3203.2927-3.3147.1255-.5387.2509-1.0359.3345-1.5745.0837-.4144-.0418-.8287.1673-1.2431.1255-.2486.1673-.2071.46-.29l.7109-.2486c.46-.1658.92-.3315 1.3382-.5801.6272-.3729 1.2127-.8287 1.7563-1.2845 1.2963-1.0773 2.6763-2.3617 3.22-3.9777.2927-.9115.3345-1.906-.2509-2.6932-.5437-.7044-1.4637-1.0773-2.3-1.2431-2.2582-.4143-3.9727.8702-5.269 2.569-1.5891 1.9474-2.7182 4.3506-3.2618 6.7952-.2927 1.2016-.46 2.4032-.6691 3.6463-.2091 1.243-.3345 2.4032.3346 3.5633-.0418-.4143-.1255-.7872-.1255-1.1601 0-.2072.0837-.4144.0837-.5801 0-.0829-.0837-.3315-.0837-.4558 0-.3729.0837-.6629.1673-1.0359.0418-.3729 0-.7458.0418-1.1187.0418-.4143.2091-.7458.3764-1.1187.1254-.3315.1672-.6215.2927-.953.1254-.29.2091-.6215.3345-.953.0418-.2072.2509-.4558.3764-.7044-.1255.3729-.3764.7044-.46 1.0359-.1255.4972-.0418 1.0358-.0836 1.5331-.0837.5386-.2509 1.0772-.3346 1.6573-.0836.5387-.3345 1.0359-.4182 1.5745-.0836.4973-.2509.8702-.209 1.3674 0 .29.0418.5801.0836.8287.0418.3314.2509.5386.46.7872.7109.8287 1.6727 1.4917 2.7599 1.7817.7527.2072 1.4218.1657 2.1327-.2072 1.0036-.5386 1.8818-1.3673 2.6345-2.1546.7109-.7872 1.2546-1.6573 1.8818-2.486.5855-.7459 1.2964-1.4502 1.8818-2.1961l2.2582-2.9004 1.2963-1.6988c.2091-.2486.3345-.4558.1673-.7872zm-10.3708.4557c.0418-.0828.0418-.1243.0418-.1243.6273-1.3259 1.0873-2.7346 1.9655-4.0191l.7527-.9944c.1673-.2072.46-.5801.7527-.663.6273-.1243.7945.953.7527 1.3674l-.1673.8701c-.0418.2486.0419.4143 0 .6215-.0836.2486-.2927.3729-.4181.5801l-.7109.9115c-.9618 1.1188-2.1745 2.0718-3.5127 2.7761.2091-.4557.3345-.9115.5436-1.3259z"/><path d="m97.5113 10.9888c-.1673-1.32594-2.2163-2.32036-3.3454-1.53311-.92.62151-1.7563 2.32031-2.4254 3.31471l-4.0981 6.1323c-.6273.953-1.2546 1.906-1.9236 2.8176-.1673.29-1.7564 2.7347-1.7564 2.7347.1673.0414.5437-.5387.6273-.6216-1.1291 1.5746-2.5927 3.2319-3.9727 4.8064-.46.5801-3.2199 4.1849-4.2235 3.7291-.3346-.1657-.4182-.7043-.46-.9944-.3346-2.196.5018-4.392.7527-6.5052l-.1673.4144.2509-1.0359c0 .1243-.0418.2486-.0418.3729l.0418-.2486-.1254 1.243c.5854-2.486 1.4218-4.8892 2.3836-7.2096.2509-.58 2.6763-6.588 3.1781-7.1267-.0836.0414-.2091.2072-.3345.3729.7945-1.4502 1.6308-2.81753 2.5926-4.14343-.209.33148-.5854.95299-.5854.95299.1673.04144 1.84-2.23746 1.84-2.48606 0-.04144-.1255.04143-.2509.1243.4181-.53865.7109-.82869.3763-1.74025-.5018-1.03586-1.9654-2.32033-3.1781-1.69881-.2509.16574-.4182.37291-.5854.58008-.8782 1.11873-1.5891 2.56894-2.1746 3.81197-.209.49722-.3763.58008-.7109.95299-.5436.62152-.8363 1.45021-1.2127 2.15462-.7527 1.4916-1.3381 3.0661-2.0072 4.5992-.6691 1.4088-1.2127 2.859-1.6727 4.3506-.2091.5801-.3764 1.1602-.5436 1.7403-.1673.5801-.7528 1.6573-.6691 2.2789l.2509-.5387c-.2091.7044-.3764 1.4502-.5436 2.196-.0419 0 .0418-.5386.0418-.5386-.1673 0-.5437 1.8231-.6273 2.0717-.1673.8701-.2927 1.7403-.3763 2.6518-.0419.953 0 1.8231.4599 2.6933.8782 1.533 2.4673 3.0247 4.1818 3.5633.2927.0829.6273.1658.92.1243.2927-.0414.5854-.1657.7945-.3729.1673-.0829.8364-.7872.3764-.4558l.7945-.7458s-.3763.4558-.5018.5387c.2091-.0829.6691-.7044.6691-.7044 1.38-1.4917 2.7599-2.9419 4.0145-4.5578 1.2963-1.7403 2.4672-3.6462 3.6381-5.5108-.3346.9944-.4182 1.9889-.7109 2.9833-.1673.5386-.3346 1.0773-.46 1.6159-.0836.2072-.1673 1.2016-.0836 1.1188 0 .1243 0 .2071-.0419.29 0-.0414 0-.0829-.0418-.1243-.1254.0414-.1254 1.2845-.1673 1.4916-.1672.5801-.4181 1.1188-.5018 1.7817-.209 1.7403-.0836 3.7706 1.0037 5.2622.669.9116 1.6727 1.4088 2.8017 1.4916 1.2127.0415 1.8818-.6215 2.5091-1.533.4182-.6216.7945-1.1602 1.0454-1.8646.2091-.5801.6273-1.6988.3764-2.2789-.1673-.3729-.2509-.4143-.5855-.2486-.46.1657-1.0036 1.1602-1.2963 1.5331-.4182.4558-1.2545 1.6159-1.9654 1.6988-.4182.0414-.3346-.0414-.4182-.5386-.0418-.2901-.0418-2.2375 0-2.2789-.1255.1657-.1673.3314-.2091.4972.1673-1.3674.7527-3.0247 1.1709-4.475.5018-1.6988.8782-3.3976 1.3382-5.0964.5018-1.7402 1.1709-3.4805 1.8818-5.1379.1672-.3729 2.049-4.4749 2.3417-4.8478-.2927.2072-1.7981 3.3562-2.2999 4.3921 1.0036-2.3618 2.1745-4.6407 3.6381-6.7953.0418 0-.4182.7044-.3346.7044.1255.0829 1.1291-1.4502 1.0455-1.4916-.0418 0-.0836 0-.1255.0414.2091-.2072.46-.3315.4182-.7458zm-10.9144 19.6813c-.3763 1.6988-.7945 3.9777-.46 5.6766-.3763-1.906-.2509-4.0606.0837-5.9666.2509-1.5745.7109-3.0247 1.2545-4.4749-.46 1.6573-.5018 3.1076-.8782 4.7649zm-6.9835-15.7451c1.1709-2.7761 2.8436-5.30357 4.5999-7.70677-1.7563 2.48607-3.1781 5.17927-4.4326 7.95537-.9618 2.1961-1.84 4.3092-2.4673 6.5053.1255-.5801.251-1.1602.46-1.7403.5019-1.6988 1.1709-3.3562 1.84-5.0136zm-.9618 4.0192c.7527-2.0303 1.6309-4.0606 2.6345-6.0494-.92 1.9059-2.1745 4.8892-2.6345 6.0494zm13.2562 2.7347c-.1255.3729-.2928.7458-.46 1.0773l.7527-1.906zm-10.0362-9.9857v-.0415zm3.1363-5.4694c0 .04144-.0418.08287-.0837.08287.0419 0 .0837-.04143.0837-.08287z"/><path d="m118.986 23.0876c-.251.0415-2.426.7044-2.3 1.0359 0 .0414.083.0829.125.0829-.711.29-1.631.3314-2.342.7872-.794.5387-1.547 1.0773-2.383 1.5331.752-1.2845 1.463-2.6518 1.923-4.0192.168-.4972 1.129-3.5633.502-3.8948-.084-.0414-.125.3315-.167.5387.042-1.6574-.502-4.1849-2.76-4.3507-1.38-.0828-2.676 1.616-3.429 2.5275-1.715 2.1546-3.22 4.475-4.726 6.7124-.418.6215-4.5995 7.3339-4.5995 7.3339s.2928-.4143.6691-.953c-.3763.6215-.7527 1.2845-1.0872 1.9474.1672-.6215 1.7566-5.5522 2.7596-8.4526.084-.1243.126-.29.168-.4143l.251-.7044v.0414c.376-1.1187.752-2.2374 1.087-3.3976 0 .1243-.168.7458-.126.7458.251.0415.586-1.6988.418-1.6988l-.125.2072c.125-.6215.335-.9116-.042-1.616-.293-.6215-.794-1.2016-1.505-1.3673-1.3802-.3729-2.0493.7458-1.9657 1.8231 0 .1657.2091.2486.2091.4144 0 .2071-.209.58-.2509.7458-.2927.8701-.5018 1.6988-.8363 2.5275-.1673.4558-1.7145 4.7649-1.7145 4.7649.0836-.0414.1254-.1243.1672-.2071-.1254.3729-.2509.7458-.4181 1.1187-.0419-.0414.1254-.3315.0418-.3315-.4182-.0828-1.4636 3.3976-1.5473 3.7291-.1672.7873-.3763 1.5331-.6691 2.3203-.1254.4144-.2927.8287-.4181 1.2845 0 .0415-.2091 1.0359 0 .663-.0418.1243-.0837.2071-.0837.29 0-.0414-.0418-.0829-.0418-.1243-.1254.0414-.2091.9116-.2091.953-.1672.4558-.3763.7873-.5854 1.2016-.5436 1.3259-.8364 2.7761-1.0454 4.1849-.3346 2.1546-1.3382 5.3865-.251 7.3753.3764.7044 1.5473 2.1546 2.4673 1.2845.4182-.4144.4182-1.3674.46-1.8646.2509-1.3673.46-2.7761.7527-4.1434l.3763-1.906c.0419-.0829.3764-1.6159.2509-1.5745-.0836.0829-.1672.2072-.209.3315.2091-.663.5018-1.2845.7527-1.9889.3345-.9944.5854-1.9474 1.0872-2.859.5855-.9115 1.0873-1.9059 1.6309-2.8175.4182-.7458.7943-1.6988 1.2543-2.3203.126-.1658.377-.2486.586-.4144.418-.4558.711-1.0773 1.045-1.5745.627-.9944 1.171-1.9888 1.84-2.9004.293-.4143 3.638-5.055 3.973-5.345-.084.0414-.168.0828-.251.1657.334-.4144.711-.7873 1.045-1.1187.042.0414-.251.29-.209.3314.084.0415 2.007-1.4502 2.342-1.4916.92-.1657.585 1.5745.46 2.0303-.209.953-.753 1.8645-1.213 2.6932-.251.4558-.502.8701-.711 1.3259-.041.0415-.376.8287-.251.7458l-.25.373c.083-.1243.125-.2901.125-.2901-.167 0-.376.7044-.418.8287-.251.4144-.586.7458-.92 1.0773-.878.9944-1.673 2.0303-2.551 2.9833-.669.7044-1.547 1.9474-2.551 2.196-.711.1657-1.254-.2072-.878.9116.251.7872 1.171 2.6103 2.174 2.6103.92 0 2.05-1.3673 2.593-1.9474.627-.7044 1.338-1.3673 2.007-2.1131.168-.2486 2.091-2.5275 2.384-2.6518h-.042c.418-.2072.837-.0415 1.422-.4558.335-.2486.502-.4972.878-.7458.293-.1658.418-.373.544-.4973 0 0 0 .0415.042.0415.418-.4144 1.003-.2901 1.547-.663.669-.4558 1.505-1.0358 2.091-1.5745.752-.6629 1.798-1.0358 2.132-2.1546-.167.0415-.376.0415-.501.1243zm-21.411 4.2263v.0415c-.0418.5386-.4182 1.1601-.6272 1.6574-.2928.7872-.5437 1.5745-.7946 2.3617-.5436 1.6574-1.1709 3.3148-1.84 4.8893-.5436 1.3259-1.0454 2.7761-1.4217 4.2263.4599-2.0303 1.2127-4.0191 1.7981-5.9251.5436-1.7403 1.38-3.4391 2.0491-5.1379.0836-.2072.8781-1.8645.7945-2.196.0418.0414.0418.0828.0418.0828zm1.84 1.2431c-.1255.4972-.2509.953-.4182 1.3673.1255-.4143.2509-.9115.4182-1.3673zm5.729-6.7953-.795 1.1602c.251-.3729.502-.7873.795-1.1602zm6.816 5.0136c.042-.1243.251-.1657.377-.2486zm-9.994-4.8478c-.042.0414-.084.1657-.126.3314zm-.293.7043.167-.3729zm2.175 1.0359v-.0414c.041-.0415.041-.0415.041-.0829.042-.0414 0 .0414-.041.1243zm-2.175-1.0359c0 .0829-.042.1244-.083.1658zm-8.8652 18.2312c0-.0414 0-.0414.0418-.0829 0 .0415 0 .0415-.0418.0829zm6.8581-12.8032c0 .0414-.0418.0414-.0418.0414z"/><path d="m132.991 23.6263c-.126-.5801-.46-.663-.879-.4972-.794.3729-1.589 1.2016-2.341 1.6988-1.715 1.0773-3.429 1.9474-5.269 2.859 0-.0415-.042-.1244-.084-.2487.042.2072 0 .2901-.042.3315-.418-1.7817-.836-3.5633-1.171-5.3865.167.7873.544 2.1132.837 3.2319-.377-1.7402-.837-3.8948-.795-3.8948-.084.0414-.084.1243-.084.2072-.083-.4972-.209-1.1188-.125-1.6574.042-.6215.376-1.1602.585-1.7403-.041.2901-.125.663-.125.663.251.0414.418-1.4917.418-1.6574-.042-.2486-.585-1.0359-.585-.8287-1.129-1.0358-3.346 1.2431-3.68 2.2375-.251.6629-.251 1.3673-.209 2.0717.041.7044.251 1.3259.46 1.9889.125.4972-.042.8286 0 1.3673.083.8287.376 1.6574.543 2.4446.168.6215.711 1.8646.586 2.4447-.084.58-1.338 1.0773-1.882 1.4087-.711.4558-1.422.9945-2.133 1.5331-1.254.953-2.592 2.1546-3.094 3.6877-.084.2071-.377 1.1187-.084 1.2844.042.0415.167-.6629.209-.7458-.543 2.7347 2.175 4.0606 4.726 4.102 2.885.0829 4.892-1.5745 5.896-4.1434.418-1.1187.543-2.2789.502-3.4391 0-.7872-.084-1.533-.209-2.2789-.084-.6629-.168-.6215.292-.9944.335-.2486.837-.4143 1.171-.5801 1.338-.7044 2.551-1.5331 3.764-2.4032.878-.6215 2.969-1.6988 2.802-3.0247zm-16.895 14.2534c-1.087-.3314 0-2.0303.377-2.5689.627-.8287 1.547-1.4502 2.383-2.0303l1.255-.8287c.125-.0829.92-.7044.669-.6215l.502-.29-.293.2486c.084-.0415.209-.0829.293-.1658.041.9945.041 1.9889-.251 2.9833-.042.1657-.837 1.8231-1.171 2.1546l.209-.1657c-.376.4557-.795.8287-1.296 1.1187 0-.0414.376-.29.334-.3315l-1.171.4558c-.585.1243-1.254.2486-1.84.0414zm5.269 1.2016c-1.087.4558-2.132.663-3.262.7044 2.05-.1243 4.182-1.1187 5.395-2.8175-.46.9115-1.045 1.6159-2.133 2.1131zm3.053-11.7674c-.042-.29-.126-.7043-.251-1.1601.084.4558.167.9115.251 1.1601zm.544 4.3092c-.042-.0414-.042-.1243-.042-.2071 0 .0828.042.1657.042.2071z"/></g></svg>